<svg width="24" height="19" viewBox="0 0 24 19" fill="none" xmlns="http://www.w3.org/2000/svg">
<path d="M16.2031 10.9252C16.2031 12.9725 14.5377 14.6378 12.4905 14.6378C10.4433 14.6378 8.77858 12.9725 8.77858 10.9252C8.77858 8.87803 10.4433 7.21265 12.4905 7.21265C14.5377 7.21265 16.2031 8.87867 16.2031 10.9252ZM24.0006 5.65353V16.1982C24.0006 17.604 22.8609 18.7437 21.4551 18.7437H3.52596C2.12021 18.7437 0.980469 17.604 0.980469 16.1982V5.65353C0.980469 4.24779 2.12021 3.10804 3.52596 3.10804H6.65691V2.2273C6.65691 0.997196 7.65347 0 8.88421 0H16.0969C17.3276 0 18.3242 0.997196 18.3242 2.2273V3.10741H21.4551C22.8609 3.10804 24.0006 4.24779 24.0006 5.65353ZM18.1122 10.9252C18.1122 7.82547 15.5903 5.30353 12.4905 5.30353C9.3914 5.30353 6.86946 7.82547 6.86946 10.9252C6.86946 14.025 9.3914 16.547 12.4905 16.547C15.5903 16.547 18.1122 14.025 18.1122 10.9252Z" fill="#3D4FF4"/>
</svg>
